# xmcd
#
# Track frame offsets: 
#        182
#        21070
#        35082
#        57562
#        77342
#        100827
#        119195
#        143852
#        163522
#        184132
#        207807
#        230527
#        251447
#        269132
#
# Disc length: 3877 seconds
#
# Revision: 4
# Processed by: cddbd v1.5PL3 Copyright (c) Steve Scherf et al.
# Submitted via: ExactAudioCopy v0.95a5
#
DISCID=c90f230e
DTITLE=Richard Elliott - After Dark
DYEAR=1994
DGENRE=Jazz
TTITLE0=Street Beat
TTITLE1=Song For Her
TTITLE2=As I Sleep
TTITLE3=After Dark
TTITLE4=El Anio
TTITLE5=Tonight
TTITLE6=On The Run
TTITLE7=If Tomorrow Never Comes
TTITLE8=Hold Me Tight
TTITLE9=Bridge Over Troubled Water
TTITLE10=The Boys From The Bay
TTITLE11=Candlelight
TTITLE12=So Special
TTITLE13=Slow It Down
EXTD=
EXTT0=
EXTT1=
EXTT2=
EXTT3=
EXTT4=
EXTT5=
EXTT6=
EXTT7=
EXTT8=
EXTT9=
EXTT10=
EXTT11=
EXTT12=
EXTT13=
PLAYORDER=
